<svg xmlns="http://www.w3.org/2000/svg" width="1024" height="1024" viewBox="0 0 1024 1024">
<g>
<path d="M 408.04 646.75 L 408.00 676.00 L 396.17 676.00 C389.66,676.00 384.03,675.70 383.67,675.33 C383.30,674.97 383.00,653.82 383.00,628.33 L 383.00 582.00 L 408.00 582.00 L 408.00 587.50 C408.00,590.53 408.20,593.00 408.45,593.00 C408.70,593.00 411.09,590.81 413.76,588.14 C420.40,581.51 426.21,579.63 438.35,580.20 C445.06,580.52 448.58,581.19 451.54,582.73 C455.44,584.75 463.07,592.13 464.32,595.07 C464.78,596.17 465.34,595.93 466.71,594.04 C470.86,588.34 473.12,586.25 478.17,583.45 C483.21,580.66 484.13,580.50 495.00,580.50 C505.86,580.50 506.79,580.66 511.82,583.45 C520.16,588.07 526.40,597.51 529.46,610.14 C530.79,615.61 539.00,671.23 539.00,674.75 C539.00,676.38 515.46,676.55 514.45,674.92 C514.09,674.33 512.06,661.84 509.95,647.17 C505.90,619.09 504.59,613.77 500.35,608.21 C494.62,600.70 482.19,599.77 475.15,606.32 C469.66,611.43 469.54,612.20 469.00,645.00 L 468.50 675.50 L 444.50 675.50 L 444.00 645.00 C443.58,619.14 443.25,614.04 441.85,611.50 C437.01,602.74 427.64,599.68 418.50,603.88 C408.72,608.37 408.10,610.93 408.04,646.75 ZM 325.52 673.59 C319.27,676.68 316.97,677.27 309.85,677.60 C304.40,677.86 299.68,677.49 296.26,676.52 C274.73,670.46 261.00,651.76 261.00,628.50 C261.00,605.77 275.07,587.10 296.50,581.36 C304.28,579.28 320.53,579.61 328.29,582.01 C344.20,586.92 355.17,598.81 360.87,617.29 C362.47,622.50 370.00,670.18 370.00,675.13 C370.00,675.67 364.85,675.94 357.75,675.78 L 345.50 675.50 L 344.28 668.11 C343.60,664.05 342.83,660.50 342.55,660.22 C342.28,659.95 339.98,662.03 337.45,664.85 C334.35,668.29 330.44,671.15 325.52,673.59 ZM 896.78 676.49 C879.69,680.52 860.88,675.62 848.50,663.92 C838.99,654.92 834.62,643.51 834.73,628.00 C834.93,598.62 854.28,579.95 884.43,580.02 C900.27,580.06 909.51,583.16 918.84,591.54 C929.23,600.89 934.25,612.77 934.25,628.00 C934.25,652.45 919.88,671.04 896.78,676.49 ZM 609.82 676.48 C592.54,680.55 573.05,675.68 560.79,664.21 C545.78,650.16 541.83,625.18 551.50,605.38 C557.22,593.66 566.39,585.82 578.86,581.96 C587.80,579.20 603.79,579.24 612.11,582.04 C632.00,588.74 643.79,606.77 642.83,629.00 L 642.50 636.50 L 607.14 636.76 L 571.79 637.03 L 572.44 639.76 C573.38,643.75 578.06,650.12 581.97,652.76 C583.84,654.02 587.82,655.76 590.81,656.63 C595.39,657.96 597.21,658.02 602.36,657.01 C609.51,655.60 612.66,654.11 617.53,649.84 C621.79,646.10 622.45,646.32 631.50,654.55 L 637.50 660.00 L 632.27 664.92 C626.29,670.54 618.93,674.33 609.82,676.48 ZM 116.00 624.03 L 116.00 676.00 L 90.00 676.00 L 90.00 544.00 L 179.00 544.00 L 179.00 566.97 L 147.75 567.24 L 116.50 567.50 L 116.50 600.50 L 173.50 601.50 L 173.50 623.50 L 144.75 623.77 ZM 681.02 649.25 L 681.00 676.00 L 657.00 676.00 L 657.00 582.00 L 681.00 582.00 L 681.00 587.33 C681.00,590.27 681.30,592.96 681.66,593.33 C682.02,593.69 683.77,592.29 685.55,590.21 C687.33,588.14 691.19,585.12 694.14,583.51 C698.70,581.02 700.87,580.52 708.68,580.18 C715.32,579.88 719.15,580.20 722.49,581.34 C732.18,584.64 739.35,593.14 743.52,606.26 C745.49,612.47 754.00,667.33 754.00,673.84 C754.00,675.93 753.64,676.00 741.97,676.00 C733.26,676.00 729.81,675.65 729.47,674.75 C729.21,674.06 727.23,661.07 725.06,645.87 C722.90,630.68 720.49,616.73 719.72,614.87 C717.68,610.01 713.10,604.94 709.33,603.36 C701.23,599.98 690.03,602.96 685.62,609.67 C681.64,615.72 681.05,620.77 681.02,649.25 ZM 487.02 530.87 C490.38,534.86 492.96,538.63 492.76,539.23 C492.24,540.78 478.88,527.95 473.37,520.62 C457.50,499.50 457.33,482.13 472.85,467.82 C477.31,463.71 491.79,455.12 536.31,430.14 C571.12,410.62 594.60,398.02 595.52,398.37 C596.50,398.75 596.87,399.77 596.56,401.23 C596.30,402.48 594.66,412.95 592.92,424.50 C591.17,436.05 589.24,446.03 588.63,446.69 C588.01,447.34 581.88,449.28 575.00,450.99 C568.12,452.71 554.17,456.54 544.00,459.50 C508.17,469.94 489.61,477.36 481.10,484.65 C468.61,495.34 470.67,511.39 487.02,530.87 ZM 821.78 664.39 L 821.50 675.50 L 814.50 675.66 C805.80,675.86 800.46,674.81 793.18,671.49 C786.54,668.46 780.68,663.13 777.76,657.50 C773.79,649.81 773.02,644.40 773.01,623.75 L 773.00 604.00 L 759.00 604.00 L 759.00 582.09 L 765.75 581.80 L 772.50 581.50 L 772.78 568.75 L 773.06 556.00 L 797.94 556.00 L 798.22 568.75 L 798.50 581.50 L 810.28 581.78 L 822.07 582.06 L 821.78 592.78 L 821.50 603.50 L 798.00 604.06 L 798.00 622.01 C798.00,643.49 798.88,646.88 805.35,650.18 C807.61,651.33 812.26,652.49 815.75,652.77 L 822.06 653.28 ZM 216.19 650.75 L 215.88 676.00 L 204.10 676.00 C197.63,676.00 192.03,675.70 191.67,675.33 C191.30,674.97 191.00,653.82 191.00,628.33 L 191.00 582.00 L 216.00 582.00 L 216.00 589.83 C216.00,594.14 216.30,597.97 216.67,598.33 C217.03,598.70 218.60,596.78 220.15,594.06 C224.78,585.95 234.47,580.06 243.25,580.02 L 248.00 580.00 L 248.00 606.00 L 243.16 606.00 C231.87,606.00 223.33,610.94 219.13,619.89 C216.54,625.41 216.50,625.89 216.19,650.75 ZM 305.50 654.06 C316.72,656.80 328.75,651.03 333.62,640.57 C340.15,626.54 333.25,607.66 320.28,604.06 C314.11,602.35 305.03,602.81 300.00,605.08 C290.93,609.20 286.95,615.45 286.21,626.76 C285.29,640.89 292.31,650.84 305.50,654.06 ZM 877.19 653.58 C886.49,656.60 899.25,652.58 904.53,644.96 C907.51,640.66 910.00,633.17 910.00,628.50 C910.00,623.80 907.50,616.33 904.46,611.94 C899.14,604.27 886.90,600.96 875.50,604.12 C869.57,605.76 862.63,613.14 860.61,619.93 C858.63,626.62 858.59,630.31 860.43,636.42 C863.10,645.31 868.39,650.71 877.19,653.58 ZM 572.02 619.25 C572.00,620.87 573.78,621.00 595.62,621.00 L 619.25 621.00 L 618.61 617.82 C617.60,612.74 613.22,606.17 608.98,603.36 C604.30,600.27 594.78,599.16 588.19,600.94 C580.84,602.93 572.10,612.83 572.02,619.25 Z" fill="rgb(0,47,132)"/>
<path d="M 455.62 533.93 C458.06,536.63 459.66,539.09 459.18,539.39 C457.92,540.17 441.76,530.76 433.24,524.29 C414.59,510.12 406.79,494.33 409.91,477.06 C411.50,468.29 418.36,454.54 426.65,443.50 C442.25,422.74 471.98,395.56 545.50,334.85 C565.85,318.05 589.18,298.61 597.35,291.65 C605.51,284.69 612.62,279.00 613.13,279.00 C613.64,279.00 614.30,279.61 614.58,280.36 C615.34,282.32 604.23,354.06 602.75,356.81 C601.55,359.03 543.45,398.01 501.69,424.60 C463.38,449.00 450.01,460.77 442.14,477.00 C438.66,484.17 438.50,484.96 438.50,495.00 C438.50,503.99 438.87,506.37 441.04,511.51 C444.09,518.75 449.63,527.25 455.62,533.93 ZM 572.36 743.62 C561.53,748.15 549.99,740.80 550.00,729.38 C550.01,719.89 556.23,714.01 566.25,714.00 C571.45,714.00 572.38,714.34 575.99,717.61 C581.02,722.16 582.80,727.39 581.16,732.86 C579.62,738.00 576.40,741.93 572.36,743.62 ZM 613.80 739.25 C613.55,743.66 613.18,744.53 611.50,744.69 C607.17,745.10 607.00,744.51 607.00,728.92 L 607.00 714.00 L 614.98 714.00 C622.38,714.00 623.21,714.21 626.21,716.90 C630.38,720.62 630.76,726.50 627.10,730.40 L 624.74 732.90 L 628.45 738.07 C634.85,746.97 628.35,747.91 621.73,739.04 C616.58,732.15 614.21,732.21 613.80,739.25 ZM 304.80 739.24 C304.59,742.99 304.07,744.54 303.00,744.67 C299.25,745.15 299.00,744.17 299.00,728.92 L 299.00 714.00 L 306.05 714.00 C316.85,714.00 321.00,716.91 321.00,724.48 C321.00,726.95 320.25,728.84 318.62,730.47 L 316.25 732.85 L 320.15 738.35 C322.62,741.83 323.66,744.10 322.97,744.52 C320.68,745.93 317.03,743.81 313.50,739.00 C310.89,735.45 309.15,734.00 307.47,734.00 C305.32,734.00 305.08,734.48 304.80,739.24 ZM 408.79 736.24 C408.50,744.60 407.81,745.82 404.25,744.35 C402.34,743.56 402.46,714.00 404.38,714.00 C405.13,714.00 409.30,717.91 413.63,722.68 L 421.50 731.36 L 422.50 714.50 L 429.00 713.87 L 429.00 729.44 C429.00,741.46 428.71,745.00 427.71,745.00 C427.00,745.00 422.92,741.17 418.65,736.50 C414.37,731.83 410.46,728.00 409.97,728.00 C409.48,728.00 408.95,731.71 408.79,736.24 ZM 507.80 739.37 C507.55,743.65 507.16,744.55 505.46,744.79 C504.34,744.95 503.10,744.77 502.71,744.38 C502.32,743.99 502.00,736.99 502.00,728.83 L 502.00 714.00 L 509.05 714.00 C517.06,714.00 521.03,715.58 522.81,719.47 C526.00,726.48 521.67,732.94 513.24,733.75 L 508.10 734.25 ZM 355.33 740.75 C353.53,744.43 350.74,745.84 348.37,744.26 C347.60,743.74 349.27,738.90 353.73,728.75 C362.40,709.06 362.52,709.06 370.84,728.25 C374.24,736.09 377.02,743.06 377.01,743.75 C377.00,745.10 373.17,745.43 371.44,744.23 C370.86,743.83 369.79,742.04 369.07,740.25 C367.82,737.16 367.50,737.00 362.46,737.00 C357.33,737.00 357.11,737.12 355.33,740.75 ZM 729.82 741.75 L 729.50 744.50 L 719.95 744.78 C714.70,744.94 710.09,744.75 709.70,744.37 C709.32,743.98 709.00,736.99 709.00,728.83 L 709.00 714.00 L 729.00 714.00 L 729.00 720.00 L 715.00 720.00 L 715.00 723.00 C715.00,725.93 715.11,726.00 720.00,726.00 C724.67,726.00 725.00,726.17 725.00,728.50 C725.00,730.83 724.67,731.00 720.00,731.00 L 715.00 731.00 L 715.00 739.00 L 730.13 739.00 ZM 772.92 742.41 C768.09,746.48 761.95,745.85 756.26,740.70 C754.56,739.16 754.29,738.36 755.13,737.34 C756.62,735.54 759.46,735.65 761.04,737.55 C761.87,738.55 763.59,738.99 765.91,738.80 C768.76,738.56 769.57,738.04 769.82,736.24 C770.08,734.39 769.29,733.63 765.32,731.93 C758.37,728.95 756.00,726.40 756.00,721.90 C756.00,719.03 756.62,717.65 758.63,716.07 C764.90,711.14 779.65,715.90 773.62,720.90 C772.56,721.78 771.51,721.63 769.14,720.27 C766.74,718.90 765.64,718.75 764.27,719.61 C761.36,721.43 762.23,723.35 767.16,726.01 C774.33,729.88 776.00,731.78 776.00,736.07 C776.00,739.03 775.35,740.37 772.92,742.41 ZM 473.08 742.08 C468.58,746.57 462.17,746.05 456.26,740.70 C454.56,739.16 454.29,738.36 455.13,737.34 C456.61,735.56 459.46,735.64 461.00,737.50 C462.68,739.53 468.61,739.47 469.40,737.41 C470.26,735.15 469.47,734.27 464.18,731.59 C458.10,728.51 455.67,725.72 455.67,721.83 C455.67,714.68 466.61,711.18 472.66,716.39 C475.05,718.44 475.25,718.99 474.10,720.39 C472.40,722.42 471.13,722.42 468.87,720.38 C466.56,718.29 462.00,719.28 462.00,721.87 C462.00,723.05 463.49,724.37 466.22,725.60 C476.43,730.20 478.94,736.22 473.08,742.08 ZM 263.78 732.25 C263.52,743.67 263.36,744.51 261.50,744.69 C257.26,745.09 257.00,744.34 257.00,731.92 L 257.00 720.00 L 252.50 720.00 C248.17,720.00 248.00,719.89 248.00,717.00 L 248.00 714.00 L 273.00 714.00 L 273.00 717.00 C273.00,719.89 272.83,720.00 268.53,720.00 L 264.06 720.00 ZM 558.92 736.08 C561.09,738.24 562.79,739.00 565.50,739.00 C573.71,739.00 578.31,728.22 572.55,722.45 C570.67,720.58 569.03,720.00 565.63,720.00 C561.89,720.00 560.77,720.49 558.59,723.08 C554.97,727.38 555.09,732.25 558.92,736.08 ZM 672.78 732.24 C672.55,742.22 672.22,744.51 671.00,744.67 C667.35,745.14 667.00,744.05 667.00,731.97 L 667.00 720.11 L 662.25 719.80 C657.93,719.53 657.50,719.27 657.50,717.00 L 657.50 714.50 L 670.25 714.22 L 683.00 713.94 L 683.00 716.97 C683.00,719.94 682.90,720.00 678.03,720.00 L 673.06 720.00 ZM 305.00 719.89 L 305.00 728.11 L 309.15 727.81 C313.95,727.45 316.18,725.09 314.39,722.25 C313.70,721.15 311.76,720.39 309.15,720.19 ZM 508.00 724.00 C508.00,727.99 508.01,728.00 511.96,728.00 C516.64,728.00 518.82,725.40 517.00,722.00 C516.21,720.52 514.91,720.00 511.96,720.00 C508.01,720.00 508.00,720.01 508.00,724.00 ZM 614.00 723.94 C614.00,727.88 614.10,728.00 617.38,728.00 C621.29,728.00 623.29,726.09 622.83,722.81 C622.55,720.87 621.82,720.45 618.25,720.19 L 614.00 719.89 ZM 360.51 731.02 C361.41,732.47 365.00,732.21 365.00,730.69 C365.00,729.97 364.38,728.54 363.63,727.51 C362.31,725.70 362.22,725.71 361.09,727.84 C360.44,729.05 360.18,730.48 360.51,731.02 Z" fill="rgb(224,14,9)"/>
<path d="M 0.00 512.00 L 0.00 0.00 L 512.00 0.00 L 1024.00 0.00 L 1024.00 512.00 L 1024.00 1024.00 L 512.00 1024.00 L 0.00 1024.00 L 0.00 512.00 ZM 263.78 732.25 L 264.06 720.00 L 268.53 720.00 C272.83,720.00 273.00,719.89 273.00,717.00 L 273.00 714.00 L 260.50 714.00 L 248.00 714.00 L 248.00 717.00 C248.00,719.89 248.17,720.00 252.50,720.00 L 257.00 720.00 L 257.00 731.92 C257.00,744.34 257.26,745.09 261.50,744.69 C263.36,744.51 263.52,743.67 263.78,732.25 ZM 304.80 739.24 C305.08,734.48 305.32,734.00 307.47,734.00 C309.15,734.00 310.89,735.45 313.50,739.00 C317.03,743.81 320.68,745.93 322.97,744.52 C323.66,744.10 322.62,741.83 320.15,738.35 L 316.25 732.85 L 318.62 730.47 C320.25,728.84 321.00,726.95 321.00,724.48 C321.00,716.91 316.85,714.00 306.05,714.00 L 299.00 714.00 L 299.00 728.92 C299.00,744.17 299.25,745.15 303.00,744.67 C304.07,744.54 304.59,742.99 304.80,739.24 ZM 355.33 740.75 C357.11,737.12 357.33,737.00 362.46,737.00 C367.50,737.00 367.82,737.16 369.07,740.25 C369.79,742.04 370.86,743.83 371.44,744.23 C373.17,745.43 377.00,745.10 377.01,743.75 C377.02,743.06 374.24,736.09 370.84,728.25 C362.52,709.06 362.40,709.06 353.73,728.75 C349.27,738.90 347.60,743.74 348.37,744.26 C350.74,745.84 353.53,744.43 355.33,740.75 ZM 408.79 736.24 C408.95,731.71 409.48,728.00 409.97,728.00 C410.46,728.00 414.37,731.83 418.65,736.50 C422.92,741.17 427.00,745.00 427.71,745.00 C428.71,745.00 429.00,741.46 429.00,729.44 L 429.00 713.87 L 425.75 714.19 L 422.50 714.50 L 422.00 722.93 L 421.50 731.36 L 413.63 722.68 C409.30,717.91 405.13,714.00 404.38,714.00 C402.46,714.00 402.34,743.56 404.25,744.35 C407.81,745.82 408.50,744.60 408.79,736.24 ZM 473.08 742.08 C478.94,736.22 476.43,730.20 466.22,725.60 C463.49,724.37 462.00,723.05 462.00,721.87 C462.00,719.28 466.56,718.29 468.87,720.38 C471.13,722.42 472.40,722.42 474.10,720.39 C475.25,718.99 475.05,718.44 472.66,716.39 C466.61,711.18 455.67,714.68 455.67,721.83 C455.67,725.72 458.10,728.51 464.18,731.59 C469.47,734.27 470.26,735.15 469.40,737.41 C468.61,739.47 462.68,739.53 461.00,737.50 C459.46,735.64 456.61,735.56 455.13,737.34 C454.29,738.36 454.56,739.16 456.26,740.70 C462.17,746.05 468.58,746.57 473.08,742.08 ZM 507.80 739.37 L 508.10 734.25 L 513.24 733.75 C521.67,732.94 526.00,726.48 522.81,719.47 C521.03,715.58 517.06,714.00 509.05,714.00 L 502.00 714.00 L 502.00 728.83 C502.00,736.99 502.32,743.99 502.71,744.38 C503.10,744.77 504.34,744.95 505.46,744.79 C507.16,744.55 507.55,743.65 507.80,739.37 ZM 572.36 743.62 C576.40,741.93 579.62,738.00 581.16,732.86 C582.80,727.39 581.02,722.16 575.99,717.61 C572.38,714.34 571.45,714.00 566.25,714.00 C556.23,714.01 550.01,719.89 550.00,729.38 C549.99,740.80 561.53,748.15 572.36,743.62 ZM 613.80 739.25 C614.21,732.21 616.58,732.15 621.73,739.04 C628.35,747.91 634.85,746.97 628.45,738.07 L 624.74 732.90 L 627.10 730.40 C630.76,726.50 630.38,720.62 626.21,716.90 C623.21,714.21 622.38,714.00 614.98,714.00 L 607.00 714.00 L 607.00 728.92 C607.00,744.51 607.17,745.10 611.50,744.69 C613.18,744.53 613.55,743.66 613.80,739.25 ZM 672.78 732.24 L 673.06 720.00 L 678.03 720.00 C682.90,720.00 683.00,719.94 683.00,716.97 L 683.00 713.94 L 670.25 714.22 L 657.50 714.50 L 657.50 717.00 C657.50,719.27 657.93,719.53 662.25,719.80 L 667.00 720.11 L 667.00 731.97 C667.00,744.05 667.35,745.14 671.00,744.67 C672.22,744.51 672.55,742.22 672.78,732.24 ZM 729.82 741.75 L 730.13 739.00 L 722.57 739.00 L 715.00 739.00 L 715.00 735.00 L 715.00 731.00 L 720.00 731.00 C724.67,731.00 725.00,730.83 725.00,728.50 C725.00,726.17 724.67,726.00 720.00,726.00 C715.11,726.00 715.00,725.93 715.00,723.00 L 715.00 720.00 L 722.00 720.00 L 729.00 720.00 L 729.00 717.00 L 729.00 714.00 L 719.00 714.00 L 709.00 714.00 L 709.00 728.83 C709.00,736.99 709.32,743.98 709.70,744.37 C710.09,744.75 714.70,744.94 719.95,744.78 L 729.50 744.50 L 729.82 741.75 ZM 772.92 742.41 C775.35,740.37 776.00,739.03 776.00,736.07 C776.00,731.78 774.33,729.88 767.16,726.01 C762.23,723.35 761.36,721.43 764.27,719.61 C765.64,718.75 766.74,718.90 769.14,720.27 C771.51,721.63 772.56,721.78 773.62,720.90 C779.65,715.90 764.90,711.14 758.63,716.07 C756.62,717.65 756.00,719.03 756.00,721.90 C756.00,726.40 758.37,728.95 765.32,731.93 C769.29,733.63 770.08,734.39 769.82,736.24 C769.57,738.04 768.76,738.56 765.91,738.80 C763.59,738.99 761.87,738.55 761.04,737.55 C759.46,735.65 756.62,735.54 755.13,737.34 C754.29,738.36 754.56,739.16 756.26,740.70 C761.95,745.85 768.09,746.48 772.92,742.41 ZM 325.52 673.59 C330.44,671.15 334.35,668.29 337.45,664.85 C339.98,662.03 342.28,659.95 342.55,660.22 C342.83,660.50 343.60,664.05 344.28,668.11 L 345.50 675.50 L 357.75 675.78 C364.85,675.94 370.00,675.67 370.00,675.13 C370.00,670.18 362.47,622.50 360.87,617.29 C355.17,598.81 344.20,586.92 328.29,582.01 C320.53,579.61 304.28,579.28 296.50,581.36 C275.07,587.10 261.00,605.77 261.00,628.50 C261.00,651.76 274.73,670.46 296.26,676.52 C299.68,677.49 304.40,677.86 309.85,677.60 C316.97,677.27 319.27,676.68 325.52,673.59 ZM 609.82 676.48 C618.93,674.33 626.29,670.54 632.27,664.92 L 637.50 660.00 L 631.50 654.55 C622.45,646.32 621.79,646.10 617.53,649.84 C612.66,654.11 609.51,655.60 602.36,657.01 C597.21,658.02 595.39,657.96 590.81,656.63 C587.82,655.76 583.84,654.02 581.97,652.76 C578.06,650.12 573.38,643.75 572.44,639.76 L 571.79 637.03 L 607.14 636.76 L 642.50 636.50 L 642.83 629.00 C643.79,606.77 632.00,588.74 612.11,582.04 C603.79,579.24 587.80,579.20 578.86,581.96 C566.39,585.82 557.22,593.66 551.50,605.38 C541.83,625.18 545.78,650.16 560.79,664.21 C573.05,675.68 592.54,680.55 609.82,676.48 ZM 896.78 676.49 C919.88,671.04 934.25,652.45 934.25,628.00 C934.25,612.77 929.23,600.89 918.84,591.54 C909.51,583.16 900.27,580.06 884.43,580.02 C854.28,579.95 834.93,598.62 834.73,628.00 C834.62,643.51 838.99,654.92 848.50,663.92 C860.88,675.62 879.69,680.52 896.78,676.49 ZM 116.00 650.02 L 116.00 624.03 L 144.75 623.77 L 173.50 623.50 L 173.50 612.50 L 173.50 601.50 L 145.00 601.00 L 116.50 600.50 L 116.50 584.00 L 116.50 567.50 L 147.75 567.24 L 179.00 566.97 L 179.00 555.49 L 179.00 544.00 L 134.50 544.00 L 90.00 544.00 L 90.00 610.00 L 90.00 676.00 L 103.00 676.00 L 116.00 676.00 L 116.00 650.02 ZM 216.19 650.75 C216.50,625.89 216.54,625.41 219.13,619.89 C223.33,610.94 231.87,606.00 243.16,606.00 L 248.00 606.00 L 248.00 593.00 L 248.00 580.00 L 243.25 580.02 C234.47,580.06 224.78,585.95 220.15,594.06 C218.60,596.78 217.03,598.70 216.67,598.33 C216.30,597.97 216.00,594.14 216.00,589.83 L 216.00 582.00 L 203.50 582.00 L 191.00 582.00 L 191.00 628.33 C191.00,653.82 191.30,674.97 191.67,675.33 C192.03,675.70 197.63,676.00 204.10,676.00 L 215.88 676.00 L 216.19 650.75 ZM 408.04 646.75 C408.10,610.93 408.72,608.37 418.50,603.88 C427.64,599.68 437.01,602.74 441.85,611.50 C443.25,614.04 443.58,619.14 444.00,645.00 L 444.50 675.50 L 456.50 675.50 L 468.50 675.50 L 469.00 645.00 C469.54,612.20 469.66,611.43 475.15,606.32 C482.19,599.77 494.62,600.70 500.35,608.21 C504.59,613.77 505.90,619.09 509.95,647.17 C512.06,661.84 514.09,674.33 514.45,674.92 C515.46,676.55 539.00,676.38 539.00,674.75 C539.00,671.23 530.79,615.61 529.46,610.14 C526.40,597.51 520.16,588.07 511.82,583.45 C506.79,580.66 505.86,580.50 495.00,580.50 C484.13,580.50 483.21,580.66 478.17,583.45 C473.12,586.25 470.86,588.34 466.71,594.04 C465.34,595.93 464.78,596.17 464.32,595.07 C463.07,592.13 455.44,584.75 451.54,582.73 C448.58,581.19 445.06,580.52 438.35,580.20 C426.21,579.63 420.40,581.51 413.76,588.14 C411.09,590.81 408.70,593.00 408.45,593.00 C408.20,593.00 408.00,590.53 408.00,587.50 L 408.00 582.00 L 395.50 582.00 L 383.00 582.00 L 383.00 628.33 C383.00,653.82 383.30,674.97 383.67,675.33 C384.03,675.70 389.66,676.00 396.17,676.00 L 408.00 676.00 L 408.04 646.75 ZM 681.02 649.25 C681.05,620.77 681.64,615.72 685.62,609.67 C690.03,602.96 701.23,599.98 709.33,603.36 C713.10,604.94 717.68,610.01 719.72,614.87 C720.49,616.73 722.90,630.68 725.06,645.87 C727.23,661.07 729.21,674.06 729.47,674.75 C729.81,675.65 733.26,676.00 741.97,676.00 C753.64,676.00 754.00,675.93 754.00,673.84 C754.00,667.33 745.49,612.47 743.52,606.26 C739.35,593.14 732.18,584.64 722.49,581.34 C719.15,580.20 715.32,579.88 708.68,580.18 C700.87,580.52 698.70,581.02 694.14,583.51 C691.19,585.12 687.33,588.14 685.55,590.21 C683.77,592.29 682.02,593.69 681.66,593.33 C681.30,592.96 681.00,590.27 681.00,587.33 L 681.00 582.00 L 669.00 582.00 L 657.00 582.00 L 657.00 629.00 L 657.00 676.00 L 669.00 676.00 L 681.00 676.00 L 681.02 649.25 ZM 821.78 664.39 L 822.06 653.28 L 815.75 652.77 C812.26,652.49 807.61,651.33 805.35,650.18 C798.88,646.88 798.00,643.49 798.00,622.01 L 798.00 604.06 L 809.75 603.78 L 821.50 603.50 L 821.78 592.78 L 822.07 582.06 L 810.28 581.78 L 798.50 581.50 L 798.22 568.75 L 797.94 556.00 L 785.50 556.00 L 773.06 556.00 L 772.78 568.75 L 772.50 581.50 L 765.75 581.80 L 759.00 582.09 L 759.00 593.05 L 759.00 604.00 L 766.00 604.00 L 773.00 604.00 L 773.01 623.75 C773.02,644.40 773.79,649.81 777.76,657.50 C780.68,663.13 786.54,668.46 793.18,671.49 C800.46,674.81 805.80,675.86 814.50,675.66 L 821.50 675.50 L 821.78 664.39 ZM 455.62 533.93 C449.63,527.25 444.09,518.75 441.04,511.51 C438.87,506.37 438.50,503.99 438.50,495.00 C438.50,484.96 438.66,484.17 442.14,477.00 C450.01,460.77 463.38,449.00 501.69,424.60 C543.45,398.01 601.55,359.03 602.75,356.81 C604.23,354.06 615.34,282.32 614.58,280.36 C614.30,279.61 613.64,279.00 613.13,279.00 C612.62,279.00 605.51,284.69 597.35,291.65 C589.18,298.61 565.85,318.05 545.50,334.85 C471.98,395.56 442.25,422.74 426.65,443.50 C418.36,454.54 411.50,468.29 409.91,477.06 C406.79,494.33 414.59,510.12 433.24,524.29 C441.76,530.76 457.92,540.17 459.18,539.39 C459.66,539.09 458.06,536.63 455.62,533.93 ZM 487.02 530.87 C470.67,511.39 468.61,495.34 481.10,484.65 C489.61,477.36 508.17,469.94 544.00,459.50 C554.17,456.54 568.12,452.71 575.00,450.99 C581.88,449.28 588.01,447.34 588.63,446.69 C589.24,446.03 591.17,436.05 592.92,424.50 C594.66,412.95 596.30,402.48 596.56,401.23 C596.87,399.77 596.50,398.75 595.52,398.37 C594.60,398.02 571.12,410.62 536.31,430.14 C491.79,455.12 477.31,463.71 472.85,467.82 C457.33,482.13 457.50,499.50 473.37,520.62 C478.88,527.95 492.24,540.78 492.76,539.23 C492.96,538.63 490.38,534.86 487.02,530.87 ZM 305.00 724.00 L 305.00 719.89 L 309.15 720.19 C311.76,720.39 313.70,721.15 314.39,722.25 C316.18,725.09 313.95,727.45 309.15,727.81 L 305.00 728.11 L 305.00 724.00 ZM 360.51 731.02 C360.18,730.48 360.44,729.05 361.09,727.84 C362.22,725.71 362.31,725.70 363.63,727.51 C364.38,728.54 365.00,729.97 365.00,730.69 C365.00,732.21 361.41,732.47 360.51,731.02 ZM 508.00 724.00 C508.00,720.01 508.01,720.00 511.96,720.00 C514.91,720.00 516.21,720.52 517.00,722.00 C518.82,725.40 516.64,728.00 511.96,728.00 C508.01,728.00 508.00,727.99 508.00,724.00 ZM 558.92 736.08 C555.09,732.25 554.97,727.38 558.59,723.08 C560.77,720.49 561.89,720.00 565.63,720.00 C569.03,720.00 570.67,720.58 572.55,722.45 C578.31,728.22 573.71,739.00 565.50,739.00 C562.79,739.00 561.09,738.24 558.92,736.08 ZM 614.00 723.94 L 614.00 719.89 L 618.25 720.19 C621.82,720.45 622.55,720.87 622.83,722.81 C623.29,726.09 621.29,728.00 617.38,728.00 C614.10,728.00 614.00,727.88 614.00,723.94 ZM 305.50 654.06 C292.31,650.84 285.29,640.89 286.21,626.76 C286.95,615.45 290.93,609.20 300.00,605.08 C305.03,602.81 314.11,602.35 320.28,604.06 C333.25,607.66 340.15,626.54 333.62,640.57 C328.75,651.03 316.72,656.80 305.50,654.06 ZM 572.02 619.25 C572.10,612.83 580.84,602.93 588.19,600.94 C594.78,599.16 604.30,600.27 608.98,603.36 C613.22,606.17 617.60,612.74 618.61,617.82 L 619.25 621.00 L 595.62 621.00 C573.78,621.00 572.00,620.87 572.02,619.25 ZM 877.19 653.58 C868.39,650.71 863.10,645.31 860.43,636.42 C858.59,630.31 858.63,626.62 860.61,619.93 C862.63,613.14 869.57,605.76 875.50,604.12 C886.90,600.96 899.14,604.27 904.46,611.94 C907.50,616.33 910.00,623.80 910.00,628.50 C910.00,633.17 907.51,640.66 904.53,644.96 C899.25,652.58 886.49,656.60 877.19,653.58 Z" fill="rgb(254,254,254)"/>
</g>
</svg>